<?xml version="1.0" encoding="UTF-8" standalone="no"?>
<!-- Created with Inkscape (http://www.inkscape.org/) -->

<svg
   width="200"
   height="200"
   viewBox="0 0 52.916665 52.916666"
   version="1.1"
   id="svg2017"
   xml:space="preserve"
   inkscape:version="1.2.2 (b0a8486541, 2022-12-01)"
   sodipodi:docname="angular_react_vue.svg"
   xmlns:inkscape="http://www.inkscape.org/namespaces/inkscape"
   xmlns:sodipodi="http://sodipodi.sourceforge.net/DTD/sodipodi-0.dtd"
   xmlns="http://www.w3.org/2000/svg"
   xmlns:svg="http://www.w3.org/2000/svg"><sodipodi:namedview
     id="namedview2019"
     pagecolor="#ffffff"
     bordercolor="#666666"
     borderopacity="1.0"
     inkscape:showpageshadow="2"
     inkscape:pageopacity="0.0"
     inkscape:pagecheckerboard="0"
     inkscape:deskcolor="#d1d1d1"
     inkscape:document-units="mm"
     showgrid="false"
     showguides="true"
     inkscape:zoom="1.1893044"
     inkscape:cx="180.77794"
     inkscape:cy="-49.608831"
     inkscape:window-width="1920"
     inkscape:window-height="1081"
     inkscape:window-x="1920"
     inkscape:window-y="32"
     inkscape:window-maximized="1"
     inkscape:current-layer="g6959" /><defs
     id="defs2014" /><g
     inkscape:label="Ebene 1"
     inkscape:groupmode="layer"
     id="layer1"><g
       id="g3013"
       transform="matrix(0.04790484,0,0,0.04790484,70.36202,19.781039)" /><g
       id="g4268"
       transform="matrix(0.11089246,0,0,0.11089246,-2.0565694,4.6792213)">
	<polygon
   class="st0"
   points="125,230 203.9,186.3 218.1,63.2 125,30 31.9,63.2 46.1,186.3 "
   id="polygon4262"
   style="fill:#bd93f9;fill-opacity:1" />
	<polygon
   class="st1"
   points="125,153.4 125,230 203.9,186.3 218.1,63.2 125,30 125,52.2 125,52.1 "
   id="polygon4264"
   style="fill:#a762f6;fill-opacity:1" />
	<path
   class="st2"
   d="M 125,52.1 66.8,182.6 v 0 h 21.7 v 0 l 11.7,-29.2 h 49.4 l 11.7,29.2 v 0 H 183 v 0 z m 17,83.3 h -34 l 17,-40.9 z"
   id="path4266"
   style="fill:#ffffff" />
</g><g
       id="g6554"
       transform="matrix(3.5921979,0,0,3.5921979,-139.3704,19.327394)"><circle
         cx="46.091633"
         cy="5.5844808"
         r="0.54239583"
         fill="#61dafb"
         id="circle5231"
         style="fill:#ffc005;fill-opacity:1;stroke-width:0.264583" /><g
         stroke="#61dafb"
         stroke-width="1"
         fill="none"
         id="g5239"
         transform="matrix(0.26458333,0,0,0.26458333,46.091632,5.584481)"
         style="stroke:#ffc005;stroke-opacity:1"><ellipse
           rx="11"
           ry="4.1999998"
           id="ellipse5233"
           cx="0"
           cy="0"
           style="stroke:#ffc005;stroke-opacity:1" /><ellipse
           rx="11"
           ry="4.1999998"
           transform="rotate(60)"
           id="ellipse5235"
           cx="0"
           cy="0"
           style="stroke:#ffc005;stroke-opacity:1" /><ellipse
           rx="11"
           ry="4.1999998"
           transform="rotate(120)"
           id="ellipse5237"
           cx="0"
           cy="0"
           style="stroke:#ffc005;stroke-opacity:1" /></g></g><g
       transform="matrix(0.10988599,0,0,-0.10988599,21.531912,36.04173)"
       id="g6959"><g
         id="g9023"
         transform="translate(20.21924,9.338384)"><g
           transform="translate(178.06,235.01)"
           id="g6953"
           style="fill:#5d9c19;fill-opacity:1"><path
             d="M 0,0 -22.669,-39.264 -45.338,0 h -75.491 L -22.669,-170.02 75.491,0 Z"
             fill="#41b883"
             id="path6951"
             style="fill:#5d9c19;fill-opacity:1" /></g><g
           transform="translate(178.06,235.01)"
           id="g6957"
           style="fill:#4a7e12;fill-opacity:1"><path
             d="M 0,0 -22.669,-39.264 -45.338,0 H -81.565 L -22.669,-102.01 36.227,0 Z"
             fill="#34495e"
             id="path6955"
             style="fill:#4a7e12;fill-opacity:1" /></g></g></g></g></svg>
