<?xml version="1.0" encoding="UTF-8" standalone="no"?>
<!-- Created with Inkscape (http://www.inkscape.org/) -->

<svg
   width="200"
   height="200"
   viewBox="0 0 52.916665 52.916666"
   version="1.1"
   id="svg2017"
   xml:space="preserve"
   inkscape:version="1.2.1 (9c6d41e410, 2022-07-14, custom)"
   sodipodi:docname="js_html_css.svg"
   xmlns:inkscape="http://www.inkscape.org/namespaces/inkscape"
   xmlns:sodipodi="http://sodipodi.sourceforge.net/DTD/sodipodi-0.dtd"
   xmlns="http://www.w3.org/2000/svg"
   xmlns:svg="http://www.w3.org/2000/svg"><sodipodi:namedview
     id="namedview2019"
     pagecolor="#ffffff"
     bordercolor="#666666"
     borderopacity="1.0"
     inkscape:showpageshadow="2"
     inkscape:pageopacity="0.0"
     inkscape:pagecheckerboard="0"
     inkscape:deskcolor="#d1d1d1"
     inkscape:document-units="mm"
     showgrid="false"
     showguides="true"
     inkscape:zoom="1.6819304"
     inkscape:cx="182.23108"
     inkscape:cy="46.969839"
     inkscape:window-width="1920"
     inkscape:window-height="1085"
     inkscape:window-x="1920"
     inkscape:window-y="32"
     inkscape:window-maximized="1"
     inkscape:current-layer="layer1" /><defs
     id="defs2014" /><g
     inkscape:label="Ebene 1"
     inkscape:groupmode="layer"
     id="layer1"><rect
       style="fill:#b0b0b0;fill-opacity:1;stroke:none;stroke-width:1.13705;stroke-linecap:square;paint-order:markers fill stroke"
       id="rect7418"
       width="50.799999"
       height="50.799999"
       x="1.0583333"
       y="1.0583333"
       ry="4.5938802" /><g
       id="g5512"
       transform="matrix(0.04779117,0,0,0.04779117,1.2004881,6.2038611)"><path
         d="m 108.4,0 h 23 v 22.8 h 21.2 V 0 h 23 v 69 h -23 V 46 h -21 V 69 H 108.4 M 206,23 H 185.7 V 0 h 63.7 V 23 H 229 V 69 H 206 M 259.5,0 h 24.1 L 298.4,24.3 313.2,0 h 24.1 v 69 h -23 V 34.8 L 298.2,59.6 282.1,34.8 V 69 H 259.5 M 348.7,0 h 23 v 46.2 h 32.6 V 69 h -55.6"
         id="path5491" /><path
         fill="#e44d26"
         d="M 107.6,471 74.6,100.6 H 437.4 L 404.4,470.8 255.7,512"
         id="path5493" /><path
         fill="#f16529"
         d="M 256,480.5 V 131 H 404.3 L 376,447"
         id="path5495" /><path
         fill="#ebebeb"
         d="m 142,176.3 h 114 v 45.4 h -64.2 l 4.2,46.5 h 60 v 45.3 H 154.4 m 2,22.8 H 202 l 3.2,36.3 50.8,13.6 v 47.4 l -93.2,-26"
         id="path5497" /><path
         fill="#ffffff"
         d="M 369.6,176.3 H 255.8 v 45.4 h 109.6 m -4.1,46.5 H 255.8 v 45.4 h 56 l -5.3,59 -50.7,13.6 v 47.2 l 93,-25.8"
         id="path5499" /></g><g
       id="g3013"
       transform="matrix(0.04790484,0,0,0.04790484,27.311823,6.1468935)"><polygon
         id="polygon2989"
         points="74.633,100.62 437.367,100.62 404.321,470.819 255.778,512 107.644,470.877 "
         style="fill:#264de4" /><polygon
         id="polygon2991"
         points="256,480.523 376.03,447.246 404.27,130.894 256,130.894 "
         style="fill:#2965f1" /><polygon
         id="polygon2993"
         points="256,268.217 150.31,268.217 154.38,313.627 256,313.627 "
         style="fill:#ebebeb" /><polygon
         id="polygon2995"
         points="256,221.716 256,176.305 255.843,176.305 142.132,176.305 146.26,221.716 "
         style="fill:#ebebeb" /><polygon
         id="polygon2997"
         points="256,386.153 255.801,386.206 205.227,372.55 201.994,336.333 177.419,336.333 156.409,336.333 162.771,407.634 255.791,433.457 256,433.399 "
         style="fill:#ebebeb" /><path
         id="path2999"
         d="m 160,0 h 55 v 23 h -32 v 23 h 32 v 23 h -55 z"
         inkscape:connector-curvature="0" /><path
         id="path3001"
         d="m 226,0 h 55 v 20 h -32 v 4 h 32 V 70 H 226 V 49 h 32 v -4 h -32 z"
         inkscape:connector-curvature="0" /><path
         id="path3003"
         d="m 292,0 h 55 v 20 h -32 v 4 h 32 V 70 H 292 V 49 h 32 v -4 h -32 z"
         inkscape:connector-curvature="0" /><polygon
         id="polygon3005"
         points="348.937,407.634 349.62,399.962 360.291,280.411 361.399,268.217 369.597,176.305 255.843,176.305 255.843,221.716 319.831,221.716 315.699,268.217 255.843,268.217 255.843,313.627 311.761,313.627 306.49,372.521 255.843,386.191 255.843,433.435 "
         style="fill:#ffffff" /></g><g
       id="g4761"
       transform="matrix(0.02396808,-0.0100345,0.0100345,0.02396808,15.095455,31.814315)"><rect
         width="630"
         height="630"
         fill="#f7df1e"
         id="rect4749"
         x="0"
         y="0" /><path
         d="m 423.2,492.19 c 12.69,20.72 29.2,35.95 58.4,35.95 24.53,0 40.2,-12.26 40.2,-29.2 0,-20.3 -16.1,-27.49 -43.1,-39.3 l -14.8,-6.35 c -42.72,-18.2 -71.1,-41 -71.1,-89.2 0,-44.4 33.83,-78.2 86.7,-78.2 37.64,0 64.7,13.1 84.2,47.4 l -46.1,29.6 c -10.15,-18.2 -21.1,-25.37 -38.1,-25.37 -17.34,0 -28.33,11 -28.33,25.37 0,17.76 11,24.95 36.4,35.95 l 14.8,6.34 c 50.3,21.57 78.7,43.56 78.7,93 0,53.3 -41.87,82.5 -98.1,82.5 -54.98,0 -90.5,-26.2 -107.88,-60.54 z m -209.13,5.13 c 9.3,16.5 17.76,30.45 38.1,30.45 19.45,0 31.72,-7.61 31.72,-37.2 v -201.3 h 59.2 v 202.1 c 0,61.3 -35.94,89.2 -88.4,89.2 -47.4,0 -74.85,-24.53 -88.81,-54.075 z"
         id="path4751" /></g></g></svg>
