<?xml version="1.0" encoding="UTF-8" standalone="no"?>
<!-- Created with Inkscape (http://www.inkscape.org/) -->

<svg
   width="200"
   height="200"
   viewBox="0 0 52.916665 52.916666"
   version="1.1"
   id="svg2017"
   xml:space="preserve"
   inkscape:version="1.2.2 (b0a8486541, 2022-12-01)"
   sodipodi:docname="simpartic_features.svg"
   xmlns:inkscape="http://www.inkscape.org/namespaces/inkscape"
   xmlns:sodipodi="http://sodipodi.sourceforge.net/DTD/sodipodi-0.dtd"
   xmlns:xlink="http://www.w3.org/1999/xlink"
   xmlns="http://www.w3.org/2000/svg"
   xmlns:svg="http://www.w3.org/2000/svg"><sodipodi:namedview
     id="namedview2019"
     pagecolor="#ffffff"
     bordercolor="#666666"
     borderopacity="1.0"
     inkscape:showpageshadow="2"
     inkscape:pageopacity="0.0"
     inkscape:pagecheckerboard="0"
     inkscape:deskcolor="#d1d1d1"
     inkscape:document-units="mm"
     showgrid="false"
     showguides="true"
     inkscape:zoom="3.3638608"
     inkscape:cx="151.90878"
     inkscape:cy="107.91172"
     inkscape:window-width="1920"
     inkscape:window-height="1081"
     inkscape:window-x="1920"
     inkscape:window-y="32"
     inkscape:window-maximized="1"
     inkscape:current-layer="layer1" /><defs
     id="defs2014" /><g
     inkscape:label="Ebene 1"
     inkscape:groupmode="layer"
     id="layer1"><g
       id="g3013"
       transform="matrix(0.04790484,0,0,0.04790484,70.36202,19.781039)" /><g
       id="g10340"
       transform="matrix(0.49013929,0,0,0.49013929,13.743207,26.943846)"
       style="fill:#ffc005;fill-opacity:1"><path
         id="path1880"
         style="fill:#ffc005;fill-opacity:1;fill-rule:evenodd;stroke:none;stroke-width:1px;stroke-linecap:butt;stroke-linejoin:miter;stroke-opacity:1"
         d="M 23.931641,3.9101562 A 20.022472,20.022472 0 0 0 3.9101562,23.931641 20.022472,20.022472 0 0 0 23.931641,43.955078 20.022472,20.022472 0 0 0 43.955078,23.931641 20.022472,20.022472 0 0 0 23.931641,3.9101562 Z M 24,8 A 16,16 0 0 1 40,24 16,16 0 0 1 24,40 16,16 0 0 1 8,24 16,16 0 0 1 24,8 Z" /><ellipse
         style="fill:#ffc005;fill-opacity:1;fill-rule:evenodd;stroke:none;stroke-width:1px;stroke-linecap:butt;stroke-linejoin:miter;stroke-opacity:1"
         id="path5427"
         transform="translate(2)"
         cx="15"
         cy="18"
         rx="4"
         ry="3.9662924" /><path
         style="fill:none;fill-opacity:1;fill-rule:evenodd;stroke:#ffc005;stroke-width:4;stroke-linecap:round;stroke-linejoin:miter;stroke-miterlimit:4;stroke-dasharray:none;stroke-opacity:1"
         d="m 13,27 c 6,8 16,8 22,0"
         id="path6316"
         sodipodi:nodetypes="cc" /><use
         x="0"
         y="0"
         xlink:href="#path5427"
         id="use7203"
         transform="translate(14)"
         width="48"
         height="48"
         style="fill:#ffc005;fill-opacity:1" /></g><g
       transform="matrix(0.01260421,0,0,-0.01260421,4.6136541,23.808814)"
       id="g3027"
       style="fill:#bd93f9;fill-opacity:1"><path
         d="m 1024,640 q 0,106 -75,181 -75,75 -181,75 -106,0 -181,-75 -75,-75 -75,-181 0,-106 75,-181 75,-75 181,-75 106,0 181,75 75,75 75,181 z m 512,109 V 527 q 0,-12 -8,-23 -8,-11 -20,-13 l -185,-28 q -19,-54 -39,-91 35,-50 107,-138 10,-12 10,-25 0,-13 -9,-23 -27,-37 -99,-108 -72,-71 -94,-71 -12,0 -26,9 l -138,108 q -44,-23 -91,-38 -16,-136 -29,-186 -7,-28 -36,-28 H 657 q -14,0 -24.5,8.5 Q 622,-111 621,-98 L 593,86 q -49,16 -90,37 L 362,16 Q 352,7 337,7 323,7 312,18 186,132 147,186 q -7,10 -7,23 0,12 8,23 15,21 51,66.5 36,45.5 54,70.5 -27,50 -41,99 L 29,495 Q 16,497 8,507.5 0,518 0,531 v 222 q 0,12 8,23 8,11 19,13 l 186,28 q 14,46 39,92 -40,57 -107,138 -10,12 -10,24 0,10 9,23 26,36 98.5,107.5 72.5,71.5 94.5,71.5 13,0 26,-10 l 138,-107 q 44,23 91,38 16,136 29,186 7,28 36,28 h 222 q 14,0 24.5,-8.5 Q 914,1391 915,1378 l 28,-184 q 49,-16 90,-37 l 142,107 q 9,9 24,9 13,0 25,-10 129,-119 165,-170 7,-8 7,-22 0,-12 -8,-23 -15,-21 -51,-66.5 -36,-45.5 -54,-70.5 26,-50 41,-98 l 183,-28 q 13,-2 21,-12.5 8,-10.5 8,-23.5 z"
         id="path3029"
         inkscape:connector-curvature="0"
         style="fill:#bd93f9;fill-opacity:1" /></g><g
       id="g12777"
       transform="matrix(-0.04251583,0,0,0.04251583,50.221259,11.06574)"
       style="fill:#5d9c19;fill-opacity:1">
	<path
   d="m 478.409,116.617 c -0.368,-4.271 -3.181,-7.94 -7.2,-9.403 -4.029,-1.472 -8.539,-0.47 -11.57,2.556 l -62.015,62.011 -68.749,-21.768 -21.768,-68.748 62.016,-62.016 c 3.035,-3.032 4.025,-7.543 2.563,-11.565 -1.477,-4.03 -5.137,-6.837 -9.417,-7.207 -37.663,-3.245 -74.566,10.202 -101.247,36.887 -36.542,36.545 -46.219,89.911 -29.083,135.399 -1.873,1.578 -3.721,3.25 -5.544,5.053 L 19.386,373.152 c -0.073,0.071 -0.145,0.149 -0.224,0.219 -24.345,24.346 -24.345,63.959 0,88.309 24.349,24.344 63.672,24.048 88.013,-0.298 0.105,-0.098 0.201,-0.196 0.297,-0.305 L 301.104,252.456 c 1.765,-1.773 3.404,-3.628 4.949,-5.532 45.5,17.167 98.9,7.513 135.474,-29.056 26.675,-26.687 40.131,-63.593 36.882,-101.251 z M 75.98,435.38 c -8.971,8.969 -23.5,8.963 -32.47,0 -8.967,-8.961 -8.967,-23.502 0,-32.466 8.97,-8.963 23.499,-8.963 32.47,0 8.967,8.964 8.967,23.505 0,32.466 z"
   id="path12775"
   style="fill:#5d9c19;fill-opacity:1" />
</g></g></svg>
